<?xml version="1.0" encoding="UTF-8"?>
<!DOCTYPE svg PUBLIC "-//W3C//DTD SVG 1.1//EN" "http://www.w3.org/Graphics/SVG/1.1/DTD/svg11.dtd">
<svg xmlns="http://www.w3.org/2000/svg" version="1.1" width="600px" height="600px" style="shape-rendering:geometricPrecision; text-rendering:geometricPrecision; image-rendering:optimizeQuality; fill-rule:evenodd; clip-rule:evenodd" xmlns:xlink="http://www.w3.org/1999/xlink">
<g><path style="opacity:1" fill="#09b0f0" d="M 275.5,-0.5 C 291.5,-0.5 307.5,-0.5 323.5,-0.5C 370.964,3.98743 415.297,18.3208 456.5,42.5C 455.084,50.7546 457.417,57.9213 463.5,64C 470.587,67.6351 475.92,65.8017 479.5,58.5C 481.86,60.8532 484.527,62.8532 487.5,64.5C 478.633,69.8606 470.799,76.5273 464,84.5C 461.536,87.5932 460.036,91.0932 459.5,95C 460.364,101.541 464.197,104.708 471,104.5C 474.436,104.151 477.769,103.484 481,102.5C 485.038,102.214 489.204,102.714 493.5,104C 498.435,106.606 503.102,109.606 507.5,113C 519.329,119.339 525.662,115.839 526.5,102.5C 568.907,152.346 593.24,210.012 599.5,275.5C 599.5,291.5 599.5,307.5 599.5,323.5C 593.149,388.741 568.983,446.408 527,496.5C 524.297,499.371 521.464,502.038 518.5,504.5C 513.5,508.833 508.833,513.5 504.5,518.5C 462.239,558.467 412.239,583.967 354.5,595C 344.041,596.66 333.708,598.16 323.5,599.5C 307.5,599.5 291.5,599.5 275.5,599.5C 210.259,593.149 152.592,568.983 102.5,527C 99.6286,524.297 96.9619,521.464 94.5,518.5C 90.1667,513.5 85.5,508.833 80.5,504.5C 40.5332,462.239 15.0332,412.239 4,354.5C 2.3395,344.041 0.839502,333.708 -0.5,323.5C -0.5,307.5 -0.5,291.5 -0.5,275.5C 1.95574,249.232 7.6224,223.565 16.5,198.5C 17.3323,226.997 17.8323,255.664 18,284.5C 19.4194,285.46 20.9194,286.293 22.5,287C 30.8333,289 39.1667,289 47.5,287C 49.492,286.426 50.992,285.259 52,283.5C 52.3333,271.167 52.6667,258.833 53,246.5C 53.5,246 54,245.5 54.5,245C 65.8333,244.667 77.1667,244.333 88.5,244C 90.9875,239.892 91.9875,235.392 91.5,230.5C 91.3333,227.5 91.1667,224.5 91,221.5C 90.6541,219.152 89.4875,217.319 87.5,216C 76.1667,215.667 64.8333,215.333 53.5,215C 52.5192,207.587 52.1858,200.087 52.5,192.5C 64.8378,192.333 77.1712,192.5 89.5,193C 94.5704,193.425 99.5704,194.259 104.5,195.5C 107.169,195.493 108.502,194.159 108.5,191.5C 108.51,182.415 106.677,173.748 103,165.5C 101.829,164.107 100.329,163.273 98.5,163C 76.4768,163.158 54.8102,162.325 33.5,160.5C 45.7321,136.029 61.3987,114.029 80.5,94.5C 85.5,90.1667 90.1667,85.5 94.5,80.5C 136.761,40.5332 186.761,15.0332 244.5,4C 254.959,2.3395 265.292,0.839502 275.5,-0.5 Z"/></g>
<g><path style="opacity:1" fill="#050206" d="M 497.5,5.5 C 503.439,6.38955 507.272,9.72288 509,15.5C 511.41,24.4467 510.077,32.78 505,40.5C 498.192,46.3831 492.192,45.7164 487,38.5C 483.179,28.839 483.846,19.5057 489,10.5C 491.531,8.09674 494.364,6.43008 497.5,5.5 Z"/></g>
<g><path style="opacity:1" fill="#050206" d="M 532.5,15.5 C 541.9,16.5861 545.733,21.9194 544,31.5C 542.462,42.9495 536.129,49.9495 525,52.5C 516.524,49.4753 513.524,43.4753 516,34.5C 518.215,25.1304 523.715,18.7971 532.5,15.5 Z"/></g>
<g><path style="opacity:1" fill="#050206" d="M 479.5,58.5 C 475.92,65.8017 470.587,67.6351 463.5,64C 457.417,57.9213 455.084,50.7546 456.5,42.5C 460.932,28.6802 468.099,27.0135 478,37.5C 480.654,44.3457 481.154,51.3457 479.5,58.5 Z"/></g>
<g><path style="opacity:1" fill="#050206" d="M 544.5,53.5 C 554.977,53.1489 559.144,58.1489 557,68.5C 553.781,77.7223 547.448,83.389 538,85.5C 533.225,85.3867 530.225,83.0534 529,78.5C 528.556,66.7263 533.723,58.3929 544.5,53.5 Z"/></g>
<g><path style="opacity:1" fill="#050206" d="M 526.5,102.5 C 525.662,115.839 519.329,119.339 507.5,113C 503.102,109.606 498.435,106.606 493.5,104C 489.204,102.714 485.038,102.214 481,102.5C 477.769,103.484 474.436,104.151 471,104.5C 464.197,104.708 460.364,101.541 459.5,95C 460.036,91.0932 461.536,87.5932 464,84.5C 470.799,76.5273 478.633,69.8606 487.5,64.5C 503.185,59.7568 514.685,64.7568 522,79.5C 524.849,86.9117 526.349,94.5784 526.5,102.5 Z"/></g>
<g><path style="opacity:1" fill="#050206" d="M 380.5,70.5 C 384.491,70.6207 387.657,72.2873 390,75.5C 395.219,84.6104 395.219,93.9437 390,103.5C 383.453,111.334 377.12,111.334 371,103.5C 366.301,94.1898 366.635,85.1898 372,76.5C 374.322,73.6047 377.155,71.6047 380.5,70.5 Z"/></g>
<g><path style="opacity:1" fill="#050206" d="M 416.5,80.5 C 423.597,80.5902 427.597,84.2568 428.5,91.5C 428.147,104.817 421.481,113.483 408.5,117.5C 400.433,114.188 397.6,108.188 400,99.5C 402.215,90.1304 407.715,83.7971 416.5,80.5 Z"/></g>
<g><path style="opacity:0.604" fill="#c5e1f8" d="M 94.5,80.5 C 90.1667,85.5 85.5,90.1667 80.5,94.5C 84.1667,88.8333 88.8333,84.1667 94.5,80.5 Z"/></g>
<g><path style="opacity:1" fill="#040206" d="M 347.5,95.5 C 357.192,95.6849 362.692,100.685 364,110.5C 366.162,120.276 362.829,127.276 354,131.5C 345.354,129.182 340.688,123.515 340,114.5C 339.099,106.682 341.599,100.348 347.5,95.5 Z"/></g>
<g><path style="opacity:1" fill="#050206" d="M 428.5,118.5 C 436.658,117.851 440.991,121.351 441.5,129C 439.73,141.068 432.897,148.234 421,150.5C 413.083,148 410.416,142.667 413,134.5C 415.685,126.65 420.852,121.316 428.5,118.5 Z"/></g>
<g><path style="opacity:1" fill="#050206" d="M 376.5,127.5 C 387.794,126.233 396.627,130.233 403,139.5C 409.894,152.098 411.561,164.765 408,177.5C 405.857,179.471 403.357,180.804 400.5,181.5C 397.839,180.668 395.172,179.834 392.5,179C 386.92,174.043 380.587,170.376 373.5,168C 367.259,167.407 361.092,167.907 355,169.5C 344.033,168.583 340.699,163.249 345,153.5C 353.183,141.852 363.683,133.185 376.5,127.5 Z"/></g>
<g><path style="opacity:1" fill="#fefefe" d="M 33.5,160.5 C 54.8102,162.325 76.4768,163.158 98.5,163C 100.329,163.273 101.829,164.107 103,165.5C 106.677,173.748 108.51,182.415 108.5,191.5C 108.502,194.159 107.169,195.493 104.5,195.5C 99.5704,194.259 94.5704,193.425 89.5,193C 77.1712,192.5 64.8378,192.333 52.5,192.5C 52.1858,200.087 52.5192,207.587 53.5,215C 64.8333,215.333 76.1667,215.667 87.5,216C 89.4875,217.319 90.6541,219.152 91,221.5C 91.1667,224.5 91.3333,227.5 91.5,230.5C 91.9875,235.392 90.9875,239.892 88.5,244C 77.1667,244.333 65.8333,244.667 54.5,245C 54,245.5 53.5,246 53,246.5C 52.6667,258.833 52.3333,271.167 52,283.5C 50.992,285.259 49.492,286.426 47.5,287C 39.1667,289 30.8333,289 22.5,287C 20.9194,286.293 19.4194,285.46 18,284.5C 17.8323,255.664 17.3323,226.997 16.5,198.5C 17.2893,187.546 17.7893,176.546 18,165.5C 23.0773,163.418 28.2439,161.751 33.5,160.5 Z"/></g>
<g><path style="opacity:1" fill="#fefefe" d="M 257.5,191.5 C 260.978,191.184 264.312,191.684 267.5,193C 270.021,195.22 272.188,197.72 274,200.5C 284.64,190.141 296.307,188.808 309,196.5C 309.167,197.333 309.333,198.167 309.5,199C 306.068,206.776 301.401,213.776 295.5,220C 293.833,220.667 292.167,220.667 290.5,220C 285.795,216.507 281.295,216.674 277,220.5C 275.689,241.745 275.022,263.078 275,284.5C 265.832,288.555 256.332,289.388 246.5,287C 244.152,286.654 242.319,285.487 241,283.5C 240.667,261.833 240.333,240.167 240,218.5C 238.698,215.046 237.198,211.712 235.5,208.5C 237.571,204.921 240.238,201.754 243.5,199C 248.101,196.202 252.768,193.702 257.5,191.5 Z"/></g>
<g><path style="opacity:1" fill="#fefefe" d="M 339.5,191.5 C 343.308,191.163 346.974,191.663 350.5,193C 352.549,195.593 354.715,198.093 357,200.5C 365.927,191.113 376.427,188.946 388.5,194C 390.613,194.872 391.946,196.372 392.5,198.5C 389.004,207.645 383.337,214.978 375.5,220.5C 371.572,217.798 367.238,216.965 362.5,218C 361.667,218.833 360.833,219.667 360,220.5C 358.689,241.411 358.022,262.411 358,283.5C 356.764,285.538 354.931,286.705 352.5,287C 344.833,289 337.167,289 329.5,287C 327.152,286.654 325.319,285.487 324,283.5C 323.667,261.833 323.333,240.167 323,218.5C 321.223,215.28 319.723,211.947 318.5,208.5C 318.848,206.303 319.848,204.47 321.5,203C 327.056,198.393 333.056,194.56 339.5,191.5 Z"/></g>
<g><path style="opacity:1" fill="#fefefe" d="M 128.5,193.5 C 135.841,193.334 143.174,193.5 150.5,194C 152.519,194.45 154.352,195.283 156,196.5C 156.333,216.167 156.667,235.833 157,255.5C 157.567,261.9 161.067,264.9 167.5,264.5C 174.194,264.304 178.361,260.971 180,254.5C 180.333,235.167 180.667,215.833 181,196.5C 182.648,195.283 184.481,194.45 186.5,194C 193.833,193.333 201.167,193.333 208.5,194C 211.494,194.406 213.661,195.906 215,198.5C 215.333,220.833 215.667,243.167 216,265.5C 218.412,268.455 221.579,269.955 225.5,270C 226.357,270.689 227.023,271.522 227.5,272.5C 217.542,291.318 204.042,294.318 187,281.5C 173.348,289.23 158.848,291.396 143.5,288C 132.895,284.396 126.062,277.229 123,266.5C 122.333,243.167 122.333,219.833 123,196.5C 124.876,195.391 126.709,194.391 128.5,193.5 Z"/></g>
<g><path style="opacity:1" fill="#fefefe" d="M 411.5,193.5 C 418.841,193.334 426.174,193.5 433.5,194C 435.519,194.45 437.352,195.283 439,196.5C 439.333,216.5 439.667,236.5 440,256.5C 443.903,265.002 450.07,266.835 458.5,262C 461.181,259.806 462.681,256.973 463,253.5C 463.333,234.5 463.667,215.5 464,196.5C 465.648,195.283 467.481,194.45 469.5,194C 476.833,193.333 484.167,193.333 491.5,194C 493.519,194.45 495.352,195.283 497,196.5C 497.667,232.5 497.667,268.5 497,304.5C 492.768,319.732 482.934,329.232 467.5,333C 453.769,335.61 440.436,334.276 427.5,329C 421.223,326.296 418.056,321.463 418,314.5C 417.501,310.179 417.334,305.846 417.5,301.5C 419.527,301.338 421.527,301.505 423.5,302C 433.202,307.343 443.535,309.343 454.5,308C 460.905,305.368 463.905,300.535 463.5,293.5C 463.018,290.459 462.351,287.459 461.5,284.5C 451.35,289.246 440.683,290.746 429.5,289C 415.057,285.893 406.891,277.06 405,262.5C 404.333,241.167 404.333,219.833 405,198.5C 406.563,195.977 408.73,194.31 411.5,193.5 Z"/></g>
<g><path style="opacity:1" fill="#fefefe" d="M 161.5,345.5 C 180.29,342.955 197.957,346.122 214.5,355C 231.637,368.685 237.137,386.185 231,407.5C 222.486,430.449 205.82,441.782 181,441.5C 177.152,441.243 173.318,440.909 169.5,440.5C 169.666,449.506 169.5,458.506 169,467.5C 168.167,468.333 167.333,469.167 166.5,470C 155.728,473.703 145.228,473.203 135,468.5C 134.333,430.833 134.333,393.167 135,355.5C 136.543,353.622 138.376,352.122 140.5,351C 147.509,348.666 154.509,346.833 161.5,345.5 Z"/></g>
<g><path style="opacity:1" fill="#fefefe" d="M 382.5,347.5 C 384.722,347.178 386.556,347.845 388,349.5C 388.5,358.494 388.666,367.494 388.5,376.5C 393.58,376.25 398.58,376.75 403.5,378C 403.583,385.85 400.583,392.517 394.5,398C 392.527,398.495 390.527,398.662 388.5,398.5C 388.333,414.17 388.5,429.837 389,445.5C 389.346,447.848 390.513,449.681 392.5,451C 395.957,452.743 399.623,453.743 403.5,454C 404.797,456.545 404.631,459.045 403,461.5C 392.8,474.154 380.3,476.987 365.5,470C 360.694,466.574 357.194,462.074 355,456.5C 353.55,437.221 353.05,417.888 353.5,398.5C 351.533,398.739 349.699,398.406 348,397.5C 344.926,391.241 344.759,384.908 347.5,378.5C 349.173,376.914 351.173,376.247 353.5,376.5C 353.334,370.158 353.5,363.825 354,357.5C 363.192,353.003 372.692,349.669 382.5,347.5 Z"/></g>
<g><path style="opacity:1" fill="#00b0f0" d="M 172.5,370.5 C 188.869,368.37 196.869,375.537 196.5,392C 196.562,399.824 193.896,406.49 188.5,412C 183.734,414.31 178.734,414.977 173.5,414C 171.667,413.5 170.5,412.333 170,410.5C 169.333,398.5 169.333,386.5 170,374.5C 170.662,373.016 171.496,371.683 172.5,370.5 Z"/></g>
<g><path style="opacity:1" fill="#fefefe" d="M 286.5,375.5 C 293.841,375.334 301.174,375.5 308.5,376C 329.909,378.708 339.076,390.542 336,411.5C 328.82,424.865 317.654,433.032 302.5,436C 296.91,437.419 291.243,438.252 285.5,438.5C 285.744,441.263 287.077,443.429 289.5,445C 299.09,450.419 309.09,451.419 319.5,448C 324.326,445.754 328.992,443.254 333.5,440.5C 334.946,441.171 335.612,442.338 335.5,444C 335.013,451.074 333.513,457.907 331,464.5C 324.952,469.104 318.119,471.937 310.5,473C 287.882,477.063 268.715,470.896 253,454.5C 245.855,442.11 243.522,428.776 246,414.5C 251.235,392.763 264.735,379.763 286.5,375.5 Z"/></g>
<g><path style="opacity:1" fill="#fefefe" d="M 448.5,375.5 C 459.289,374.975 469.955,375.808 480.5,378C 486.096,379.288 490.429,382.288 493.5,387C 490.498,394.505 485.498,400.338 478.5,404.5C 472.621,401.394 466.621,398.56 460.5,396C 450.801,394.434 447.801,398.1 451.5,407C 462.833,411.667 474.167,416.333 485.5,421C 499.125,431.248 501.625,443.748 493,458.5C 485.991,466.589 477.158,471.423 466.5,473C 449.751,475.562 434.084,472.562 419.5,464C 412.541,460.661 411.708,456.161 417,450.5C 420.367,446.797 424.034,443.464 428,440.5C 436.606,446.538 446.106,450.538 456.5,452.5C 463.734,451.197 465.734,447.364 462.5,441C 450.05,435.853 437.717,430.52 425.5,425C 413.106,413.319 412.272,400.819 423,387.5C 430.54,381.274 439.04,377.274 448.5,375.5 Z"/></g>
<g><path style="opacity:1" fill="#02b0f0" d="M 293.5,394.5 C 303.474,394.404 306.307,399.071 302,408.5C 297.251,416.796 290.084,421.463 280.5,422.5C 280.735,414.293 282.902,406.626 287,399.5C 288.805,397.174 290.972,395.508 293.5,394.5 Z"/></g>
<g><path style="opacity:0.035" fill="#d0e6f9" d="M 80.5,504.5 C 85.5,508.833 90.1667,513.5 94.5,518.5C 88.8333,514.833 84.1667,510.167 80.5,504.5 Z"/></g>
<g><path style="opacity:0.118" fill="#d7eafa" d="M 518.5,504.5 C 514.833,510.167 510.167,514.833 504.5,518.5C 508.833,513.5 513.5,508.833 518.5,504.5 Z"/></g>
</svg>
